<?xml version="1.0" encoding="UTF-8"?>
<svg width="607px" height="607px" viewBox="0 0 607 607" version="1.1" xmlns="http://www.w3.org/2000/svg" xmlns:xlink="http://www.w3.org/1999/xlink">
    <!-- Generator: Sketch 46.2 (44496) - http://www.bohemiancoding.com/sketch -->
    <title>Artboard Copy</title>
    <desc>Created with Sketch.</desc>
    <defs>
        <polygon id="path-1" points="0.000477824268 0.390468619 569.609531 0.390468619 569.609531 569.999283 0.000477824268 569.999283"></polygon>
    </defs>
    <g id="Page-1" stroke="none" stroke-width="1" fill="none" fill-rule="evenodd">
        <g id="Artboard-Copy">
            <g id="Page-1" transform="translate(19.000000, 19.000000)">
                <g id="Group-3">
                    <mask id="mask-2" fill="white">
                        <use xlink:href="#path-1"></use>
                    </mask>
                    <g id="Clip-2"></g>
                    <path d="M284.805244,459.736555 C188.406587,459.736555 110.263206,381.593174 110.263206,285.194518 C110.263206,188.79825 188.406587,110.65248 284.805244,110.65248 C381.201511,110.65248 459.347281,188.79825 459.347281,285.194518 C459.347281,316.542179 450.973411,345.887756 436.504892,371.315174 L518.781453,447.509032 C550.79329,401.451551 569.610009,345.534166 569.610009,285.194518 C569.610009,127.899547 442.097825,0.389751883 284.805244,0.389751883 C127.512662,0.389751883 0.000477824268,127.899547 0.000477824268,285.194518 C0.000477824268,442.489488 127.512662,569.999283 284.805244,569.999283 C344.698126,569.999283 400.242808,551.471647 446.104382,519.892241 L361.684779,441.715413 C338.46252,453.14258 312.433043,459.736555 284.805244,459.736555" id="Fill-1" fill="#1588FF" mask="url(#mask-2)"></path>
                </g>
                <path d="M518.485415,447 C498.877181,475.263652 474.303148,499.794143 446,519.316853 L475.2253,546.427616 C495.848615,565.561256 528.352677,564.310505 547.450987,543.651616 C566.55168,522.99034 565.303082,490.432599 544.679766,471.298959 L518.485415,447 Z" id="Fill-4" fill="#1588FF"></path>
                <path d="M330.615391,342.333778 C311.42076,362.975088 312.675499,395.501365 333.402635,414.616515 L362.0102,441 C393.529526,425.550018 419.689873,401.028925 437,370.732271 L403.198678,339.558075 C382.471542,320.44531 349.810021,321.692469 330.615391,342.333778" id="Fill-6" fill="#1588FF"></path>
            </g>
        </g>
    </g>
</svg>